/* XPM */
static char * arrow_right_xpm[] = {
"16 13 2 1",
" 	c None",
".	c #FF0000",
"         .      ",
"         ..     ",
"         ...    ",
"         ....   ",
"         .....  ",
"............... ",
"................",
"............... ",
"         .....  ",
"         ....   ",
"         ...    ",
"         ..     ",
"         .      "};
