/* XPM */
static char * arrow_left_twist_xpm[] = {
"16 19 2 1",
" 	c None",
".	c #FF0000",
"      .         ",
"     ..         ",
"    ...         ",
"   ....         ",
"  .....         ",
" ...........    ",
"..............  ",
" .............. ",
"  .....   ..... ",
"   ....     ....",
"    ...     ....",
"     ..      ...",
"      .      ...",
"            ....",
"            ....",
"          ..... ",
"        ....... ",
"        ......  ",
"         ...    "};
