/* XPM */
static char * arrow_right_twist_xpm[] = {
"16 19 2 1",
" 	c None",
".	c #FF0000",
"    ...         ",
"  ......        ",
" .......        ",
" .....          ",
"....            ",
"....            ",
"...      .      ",
"...      ..     ",
"....     ...    ",
"....     ....   ",
" .....   .....  ",
" .............. ",
"  ..............",
"    ........... ",
"         .....  ",
"         ....   ",
"         ...    ",
"         ..     ",
"         .      "};
