/* XPM */
static char * arrow_up_twist_xpm[] = {
"19 16 2 1",
" 	c None",
".	c #FF0000",
"            .      ",
"           ...     ",
"          .....    ",
"         .......   ",
"        .........  ",
"       ........... ",
"      .............",
"           ...     ",
" ..        ...     ",
"...        ...     ",
"....      ....     ",
"....      ....     ",
" .....  .....      ",
" ............      ",
"  ..........       ",
"    ......         "};
