/* XPM */
static char * arrow_down_twist_xpm[] = {
"19 16 2 1",
" 	c None",
".	c #FF0000",
"         ......    ",
"       ..........  ",
"      ............ ",
"      .....  ..... ",
"     ....      ....",
"     ....      ....",
"     ...        ...",
"     ...        .. ",
"     ...           ",
".............      ",
" ...........       ",
"  .........        ",
"   .......         ",
"    .....          ",
"     ...           ",
"      .            "};
