/* XPM */
static char * detach_box_xpm[] = {
"20 15 2 1",
" 	c None",
".	c #FF0000",
"....................",
".                  .",
".                  .",
".                  .",
".                  .",
".                  .",
".                  .",
".                  .",
".                  .",
".                  .",
".                  .",
".                  .",
".                  .",
".                  .",
"...................."};
