/* XPM */
static const char * halfop_xpm[] = {
"7 7 5 1",
" 	c None",
".      c None",
"+	c #000000",
"@	c #EE11EE",
"#	c #FFFFFF",
"  +++  ",
" +@@@+ ",
"+@#@@@#",
"+@@@@@#",
"+@@@@@#",
" +@@@# ",
"  ###  "};
