/* XPM */
static char * lock_xpm[] = {
"12 16 110 2",
"  	c None",
". 	c #585858",
"+ 	c #DCDCDC",
"@ 	c #A0A0A0",
"# 	c #303030",
"$ 	c #C3C3C3",
"% 	c #808080",
"& 	c #000000",
"* 	c #645C29",
"= 	c #5C5323",
"- 	c #4F481A",
"; 	c #4E4619",
"> 	c #494314",
", 	c #463F12",
"' 	c #2A260E",
") 	c #1D1B0C",
"! 	c #211E0A",
"~ 	c #6E672E",
"{ 	c #797030",
"] 	c #766F38",
"^ 	c #827D4F",
"/ 	c #8B8661",
"( 	c #94907B",
"_ 	c #94917B",
": 	c #888561",
"< 	c #615E42",
"[ 	c #5E582C",
"} 	c #5C5623",
"| 	c #1C1A0A",
"1 	c #6B642B",
"2 	c #9E9858",
"3 	c #DFDBB3",
"4 	c #DAD6A3",
"5 	c #DBD6AA",
"6 	c #D5D1A9",
"7 	c #CBC69C",
"8 	c #BDB785",
"9 	c #A59E60",
"0 	c #90884E",
"a 	c #645C2B",
"b 	c #1D1B0B",
"c 	c #595856",
"d 	c #AFAB8A",
"e 	c #F0EED5",
"f 	c #DFDBAC",
"g 	c #D2CC9C",
"h 	c #C4BE8C",
"i 	c #B6B07C",
"j 	c #A8A26D",
"k 	c #9A925D",
"l 	c #8A8454",
"m 	c #6A6335",
"n 	c #1F1D0D",
"o 	c #5A5A5A",
"p 	c #B0B0B2",
"q 	c #F4F4F4",
"r 	c #ECECEE",
"s 	c #E0E0E0",
"t 	c #D0D0D0",
"u 	c #C0C0C0",
"v 	c #B0B0B0",
"w 	c #92918B",
"x 	c #726C4A",
"y 	c #221F0E",
"z 	c #AEAEAF",
"A 	c #ECECEC",
"B 	c #E2E2E2",
"C 	c #D2D2D2",
"D 	c #C2C2C2",
"E 	c #B2B2B2",
"F 	c #A2A2A2",
"G 	c #23210E",
"H 	c #AFAFAF",
"I 	c #E3E3E3",
"J 	c #D3D3D3",
"K 	c #C4C4C4",
"L 	c #B4B4B4",
"M 	c #A4A4A4",
"N 	c #716C4A",
"O 	c #24220F",
"P 	c #66602D",
"Q 	c #AEADAC",
"R 	c #E4E4E4",
"S 	c #D4D4D4",
"T 	c #B5B5B5",
"U 	c #A6A6A6",
"V 	c #93928C",
"W 	c #262410",
"X 	c #68602A",
"Y 	c #A49D61",
"Z 	c #EEECCF",
"` 	c #DFDBAB",
" .	c #D0CC9B",
"..	c #C1BC8A",
"+.	c #B3AC79",
"@.	c #A49D68",
"#.	c #958E58",
"$.	c #867E47",
"%.	c #615A29",
"&.	c #201D0A",
"*.	c #49451F",
"=.	c #666354",
"-.	c #6B6A53",
";.	c #63614A",
">.	c #5B5943",
",.	c #565437",
"'.	c #4F4C32",
").	c #48452B",
"!.	c #403B21",
"~.	c #191809",
"        . . . .         ",
"      . + @ @ @ #       ",
"    . $ . # # . @ .     ",
"    . @ #     . % #     ",
"    . % #     . % #     ",
"    . . &     . % &     ",
"  * = - ; > , ' ) ) !   ",
"~ { ] ^ / ( _ : < [ } | ",
"1 2 3 4 5 6 7 8 9 0 a b ",
"c d e f g h i j k l m n ",
"o p q r s t u v @ w x y ",
"o z q A B C D E F w x G ",
"o H q A I J K L M w N O ",
"P Q q A R S K T U V x W ",
"X Y Z `  ...+.@.#.$.%.&.",
"  *.=.-.;.>.,.'.).!.~.  "};
