/* XPM */
static char * right_xpm[] = {
"7 13 2 1",
" 	c None",
".	c #FF0000",
".      ",
"..     ",
"...    ",
"....   ",
".....  ",
"...... ",
".......",
"...... ",
".....  ",
"....   ",
"...    ",
"..     ",
".      "};
